<svg width="27" height="32" viewBox="0 0 27 32" fill="none" xmlns="http://www.w3.org/2000/svg">
<g clip-path="url(#clip0_5_449)">
<path d="M13.506 8.81251C9.67299 8.81251 6.58125 12.0188 6.58125 15.9938C6.58125 19.9688 9.67299 23.175 13.506 23.175C17.3391 23.175 20.4308 19.9688 20.4308 15.9938C20.4308 12.0188 17.3391 8.81251 13.506 8.81251ZM13.506 20.6625C11.029 20.6625 9.00402 18.5688 9.00402 15.9938C9.00402 13.4188 11.023 11.325 13.506 11.325C15.9891 11.325 18.008 13.4188 18.008 15.9938C18.008 18.5688 15.983 20.6625 13.506 20.6625ZM22.3292 8.51876C22.3292 9.45001 21.606 10.1938 20.7141 10.1938C19.8161 10.1938 19.0989 9.44376 19.0989 8.51876C19.0989 7.59376 19.8221 6.84376 20.7141 6.84376C21.606 6.84376 22.3292 7.59376 22.3292 8.51876ZM26.9156 10.2188C26.8132 7.97501 26.319 5.98751 24.7339 4.35001C23.1549 2.71251 21.2384 2.20001 19.0748 2.08751C16.8449 1.95626 10.1612 1.95626 7.93125 2.08751C5.77366 2.19376 3.85715 2.70626 2.2721 4.34376C0.687057 5.98126 0.198887 7.96876 0.0904053 10.2125C-0.0361572 12.525 -0.0361572 19.4563 0.0904053 21.7688C0.192861 24.0125 0.687057 26 2.2721 27.6375C3.85715 29.275 5.76764 29.7875 7.93125 29.9C10.1612 30.0313 16.8449 30.0313 19.0748 29.9C21.2384 29.7938 23.1549 29.2813 24.7339 27.6375C26.3129 26 26.8071 24.0125 26.9156 21.7688C27.0422 19.4563 27.0422 12.5313 26.9156 10.2188ZM24.0348 24.25C23.5647 25.475 22.6547 26.4188 21.4674 26.9125C19.6895 27.6438 15.4708 27.475 13.506 27.475C11.5413 27.475 7.31652 27.6375 5.54465 26.9125C4.3634 26.425 3.45335 25.4813 2.97724 24.25C2.2721 22.4063 2.43482 18.0313 2.43482 15.9938C2.43482 13.9563 2.27813 9.57501 2.97724 7.73751C3.44732 6.51251 4.35737 5.56876 5.54465 5.07501C7.32255 4.34376 11.5413 4.51251 13.506 4.51251C15.4708 4.51251 19.6955 4.35001 21.4674 5.07501C22.6487 5.56251 23.5587 6.50626 24.0348 7.73751C24.74 9.58126 24.5772 13.9563 24.5772 15.9938C24.5772 18.0313 24.74 22.4125 24.0348 24.25Z" fill="white"/>
</g>
<defs>
<clipPath id="clip0_5_449">
<rect width="27" height="32" fill="white"/>
</clipPath>
</defs>
</svg>
