<svg width="294" height="111" viewBox="0 0 294 111" fill="none" xmlns="http://www.w3.org/2000/svg">
<g clip-path="url(#clip0_5_20)">
<rect x="57.0001" y="20" width="41" height="70" fill="#009DE0"/>
<rect x="57.0001" y="89" width="6" height="2" fill="#009DE0"/>
<path d="M56.8348 55.5L57.1696 91" stroke="#009DE0"/>
<path d="M104.672 94.6H107.862V110H104.672V94.6ZM115.23 101.354L114.24 110H110.962L113.25 93.83L119.696 103.774L126.142 93.83L128.43 110H125.152L124.162 101.354L119.696 108.57L115.23 101.354ZM131.558 94.6H134.704V110H131.558V94.6ZM133.472 97.262V94.6H136.53C137.748 94.6 138.782 94.798 139.632 95.194C140.498 95.59 141.158 96.1547 141.612 96.888C142.067 97.6213 142.294 98.494 142.294 99.506C142.294 100.503 142.067 101.376 141.612 102.124C141.158 102.857 140.498 103.422 139.632 103.818C138.782 104.214 137.748 104.412 136.53 104.412H133.472V101.75H136.53C137.366 101.75 138.026 101.559 138.51 101.178C138.994 100.797 139.236 100.239 139.236 99.506C139.236 98.758 138.994 98.2007 138.51 97.834C138.026 97.4527 137.366 97.262 136.53 97.262H133.472ZM147.83 102.3C147.83 103.283 148.036 104.155 148.446 104.918C148.857 105.681 149.422 106.282 150.14 106.722C150.859 107.162 151.695 107.382 152.648 107.382C153.602 107.382 154.438 107.162 155.156 106.722C155.875 106.282 156.432 105.681 156.828 104.918C157.239 104.155 157.444 103.283 157.444 102.3C157.444 101.317 157.246 100.445 156.85 99.682C156.454 98.9193 155.897 98.318 155.178 97.878C154.46 97.438 153.616 97.218 152.648 97.218C151.695 97.218 150.859 97.438 150.14 97.878C149.422 98.318 148.857 98.9193 148.446 99.682C148.036 100.445 147.83 101.317 147.83 102.3ZM144.508 102.3C144.508 101.127 144.714 100.056 145.124 99.088C145.535 98.1053 146.107 97.2547 146.84 96.536C147.574 95.8173 148.432 95.2673 149.414 94.886C150.412 94.49 151.49 94.292 152.648 94.292C153.822 94.292 154.9 94.49 155.882 94.886C156.865 95.2673 157.723 95.8173 158.456 96.536C159.204 97.2547 159.776 98.1053 160.172 99.088C160.583 100.056 160.788 101.127 160.788 102.3C160.788 103.459 160.583 104.537 160.172 105.534C159.776 106.517 159.212 107.375 158.478 108.108C157.76 108.841 156.902 109.413 155.904 109.824C154.922 110.22 153.836 110.418 152.648 110.418C151.46 110.418 150.368 110.22 149.37 109.824C148.388 109.413 147.53 108.841 146.796 108.108C146.063 107.375 145.498 106.517 145.102 105.534C144.706 104.537 144.508 103.459 144.508 102.3ZM167.378 102.828H170.7L175.716 110H171.998L167.378 102.828ZM163.88 94.6H167.026V110H163.88V94.6ZM165.794 97.284V94.6H169.05C170.268 94.6 171.302 94.8053 172.152 95.216C173.003 95.6267 173.656 96.1987 174.11 96.932C174.565 97.6653 174.792 98.5233 174.792 99.506C174.792 100.474 174.565 101.332 174.11 102.08C173.656 102.813 173.003 103.385 172.152 103.796C171.302 104.207 170.268 104.412 169.05 104.412H165.794V101.904H168.852C169.41 101.904 169.886 101.816 170.282 101.64C170.693 101.449 171.008 101.185 171.228 100.848C171.448 100.496 171.558 100.078 171.558 99.594C171.558 99.11 171.448 98.6993 171.228 98.362C171.008 98.01 170.693 97.746 170.282 97.57C169.886 97.3793 169.41 97.284 168.852 97.284H165.794ZM176.643 97.438V94.6H188.083V97.438H183.925V110H180.779V97.438H176.643ZM205.266 104.28V101.772H212.856C212.9 102.945 212.761 104.053 212.438 105.094C212.13 106.135 211.639 107.059 210.964 107.866C210.304 108.658 209.483 109.281 208.5 109.736C207.518 110.191 206.396 110.418 205.134 110.418C203.946 110.418 202.846 110.22 201.834 109.824C200.837 109.428 199.964 108.871 199.216 108.152C198.483 107.433 197.911 106.575 197.5 105.578C197.104 104.581 196.906 103.488 196.906 102.3C196.906 101.112 197.112 100.027 197.522 99.044C197.948 98.0467 198.534 97.196 199.282 96.492C200.03 95.788 200.91 95.2453 201.922 94.864C202.934 94.4827 204.034 94.292 205.222 94.292C206.278 94.292 207.224 94.4387 208.06 94.732C208.911 95.0253 209.659 95.436 210.304 95.964C210.964 96.4773 211.529 97.0933 211.998 97.812L209.314 99.374C208.933 98.6993 208.398 98.1567 207.708 97.746C207.034 97.3207 206.205 97.108 205.222 97.108C204.298 97.108 203.455 97.3207 202.692 97.746C201.93 98.1567 201.321 98.7507 200.866 99.528C200.426 100.305 200.206 101.229 200.206 102.3C200.206 103.356 200.426 104.287 200.866 105.094C201.306 105.886 201.9 106.502 202.648 106.942C203.411 107.382 204.269 107.602 205.222 107.602C205.853 107.602 206.418 107.521 206.916 107.36C207.415 107.184 207.84 106.942 208.192 106.634C208.559 106.326 208.867 105.974 209.116 105.578C209.366 105.182 209.556 104.749 209.688 104.28H205.266ZM219.583 102.828H222.905L227.921 110H224.203L219.583 102.828ZM216.085 94.6H219.231V110H216.085V94.6ZM217.999 97.284V94.6H221.255C222.472 94.6 223.506 94.8053 224.357 95.216C225.208 95.6267 225.86 96.1987 226.315 96.932C226.77 97.6653 226.997 98.5233 226.997 99.506C226.997 100.474 226.77 101.332 226.315 102.08C225.86 102.813 225.208 103.385 224.357 103.796C223.506 104.207 222.472 104.412 221.255 104.412H217.999V101.904H221.057C221.614 101.904 222.091 101.816 222.487 101.64C222.898 101.449 223.213 101.185 223.433 100.848C223.653 100.496 223.763 100.078 223.763 99.594C223.763 99.11 223.653 98.6993 223.433 98.362C223.213 98.01 222.898 97.746 222.487 97.57C222.091 97.3793 221.614 97.284 221.057 97.284H217.999ZM232.829 102.3C232.829 103.283 233.035 104.155 233.445 104.918C233.856 105.681 234.421 106.282 235.139 106.722C235.858 107.162 236.694 107.382 237.647 107.382C238.601 107.382 239.437 107.162 240.155 106.722C240.874 106.282 241.431 105.681 241.827 104.918C242.238 104.155 242.443 103.283 242.443 102.3C242.443 101.317 242.245 100.445 241.849 99.682C241.453 98.9193 240.896 98.318 240.177 97.878C239.459 97.438 238.615 97.218 237.647 97.218C236.694 97.218 235.858 97.438 235.139 97.878C234.421 98.318 233.856 98.9193 233.445 99.682C233.035 100.445 232.829 101.317 232.829 102.3ZM229.507 102.3C229.507 101.127 229.713 100.056 230.123 99.088C230.534 98.1053 231.106 97.2547 231.839 96.536C232.573 95.8173 233.431 95.2673 234.413 94.886C235.411 94.49 236.489 94.292 237.647 94.292C238.821 94.292 239.899 94.49 240.881 94.886C241.864 95.2673 242.722 95.8173 243.455 96.536C244.203 97.2547 244.775 98.1053 245.171 99.088C245.582 100.056 245.787 101.127 245.787 102.3C245.787 103.459 245.582 104.537 245.171 105.534C244.775 106.517 244.211 107.375 243.477 108.108C242.759 108.841 241.901 109.413 240.903 109.824C239.921 110.22 238.835 110.418 237.647 110.418C236.459 110.418 235.367 110.22 234.369 109.824C233.387 109.413 232.529 108.841 231.795 108.108C231.062 107.375 230.497 106.517 230.101 105.534C229.705 104.537 229.507 103.459 229.507 102.3ZM248.769 94.6H251.915V104.742C251.915 105.622 252.143 106.333 252.597 106.876C253.067 107.404 253.756 107.668 254.665 107.668C255.575 107.668 256.257 107.404 256.711 106.876C257.181 106.333 257.415 105.622 257.415 104.742V94.6H260.561V104.94C260.561 105.849 260.415 106.649 260.121 107.338C259.828 108.027 259.41 108.607 258.867 109.076C258.339 109.545 257.716 109.897 256.997 110.132C256.279 110.381 255.501 110.506 254.665 110.506C253.815 110.506 253.03 110.381 252.311 110.132C251.593 109.897 250.969 109.545 250.441 109.076C249.913 108.607 249.503 108.027 249.209 107.338C248.916 106.649 248.769 105.849 248.769 104.94V94.6ZM264.428 94.6H267.574V110H264.428V94.6ZM266.342 97.262V94.6H269.4C270.617 94.6 271.651 94.798 272.502 95.194C273.367 95.59 274.027 96.1547 274.482 96.888C274.937 97.6213 275.164 98.494 275.164 99.506C275.164 100.503 274.937 101.376 274.482 102.124C274.027 102.857 273.367 103.422 272.502 103.818C271.651 104.214 270.617 104.412 269.4 104.412H266.342V101.75H269.4C270.236 101.75 270.896 101.559 271.38 101.178C271.864 100.797 272.106 100.239 272.106 99.506C272.106 98.758 271.864 98.2007 271.38 97.834C270.896 97.4527 270.236 97.262 269.4 97.262H266.342Z" fill="#253763"/>
<path d="M41.7334 1.99999C32.5334 4.53333 25.8667 7.99999 19.3334 13.8667L14.0001 18.5333L23.0667 18.6667C28.0001 18.6667 34.1334 19.4667 36.5334 20.5333C41.4667 22.5333 41.2001 22.2667 51.3334 51.0667L56.4001 65.6L59.6001 57.0667C61.2001 52.5333 64.4001 43.2 66.6667 36.4C68.9334 29.7333 71.9334 23.9333 73.0001 23C74.0667 22.0667 79.6001 20.6667 85.4667 20.2667L98.0001 20V54.7659V90H88.5001H81.5001L81.3334 67.3333C81.3334 54.4 80.8001 44.1333 80.2667 44.5333C79.6001 44.9333 75.3334 55.4667 70.6667 67.8667C66.1334 80.4 62.5001 90.5 62.5001 90.5C62.5001 90.5 58.5334 90.5333 55.5001 90.5333C51.5001 90.5333 48.8001 90.5333 48.8001 90.5333C48.8001 90.5333 43.4667 79.3333 39.2001 68L31.3334 47.3333L30.6667 69.3333L30.0001 90H22.0001H13.0001V91L20.9334 98.2667C31.8667 106.933 40.9334 109.867 56.0001 110C67.4667 110 69.4667 109.6 77.7334 105.733C89.6001 100.133 100.267 89.8667 105.6 78.9333C113.2 63.6 112.133 42.5333 103.2 27.2C91.2001 6.8 64.5334 -4.13334 41.7334 1.99999Z" fill="#253763"/>
<path d="M9.48204 24.5206C-1.95154 42.3371 -1.8259 69.7266 9.85897 86.4794L13.0001 91V55.5C13.0001 35.9551 12.8744 20 12.7488 20C12.4975 20 11.1154 21.9944 9.48204 24.5206Z" fill="#253763"/>
<path d="M182.667 55.3333V90.6667H190.667H198.667V75.3333V60H203.733C208.533 60 209.067 60.5333 219.867 74.8C226 82.9333 231.733 89.8667 232.667 90.1333C233.6 90.5333 237.6 90.6667 241.6 90.4L248.933 90L235.6 72.8C225.867 60.4 222.533 55.2 223.467 53.8667C224.133 52.9333 230.267 44.8 236.933 36L249.333 20H240.8H232.267L219.733 36C208.267 50.8 207.067 52.1333 203.333 51.7333L199.333 51.3333L198.933 35.6L198.533 20H190.667H182.667V55.3333Z" fill="#253763"/>
<path d="M258.667 55.3333V90.6667H266.667H274.667V55.3333V20H266.667H258.667V55.3333Z" fill="#253763"/>
<path d="M105.467 90.6667L122.4 56C131.6 36.9333 139.467 21.3333 139.867 21.3333C140.267 21.3333 148.667 36.9333 158.267 56L176 90.6667L142 90.5L141 86.5C141 86.5 140.281 90.4947 139.5 90.5C132.651 90.5466 135.867 90.6667 122 90.6667H105.467Z" fill="#253763"/>
<path d="M281.52 10.945H282.75L284.685 13.75H283.155L281.52 10.945ZM279.9 7.45H281.19V13.75H279.9V7.45ZM280.68 8.545V7.45H282.015C282.755 7.45 283.33 7.635 283.74 8.005C284.16 8.365 284.37 8.825 284.37 9.385C284.37 9.985 284.16 10.47 283.74 10.84C283.33 11.21 282.755 11.395 282.015 11.395H280.68V10.375H281.94C282.28 10.375 282.55 10.3 282.75 10.15C282.95 9.99 283.05 9.76 283.05 9.46C283.05 9.15 282.95 8.92 282.75 8.77C282.55 8.62 282.28 8.545 281.94 8.545H280.68ZM277.425 10.75C277.425 11.42 277.54 12.04 277.77 12.61C278 13.17 278.32 13.66 278.73 14.08C279.15 14.5 279.635 14.825 280.185 15.055C280.745 15.285 281.35 15.4 282 15.4C282.65 15.4 283.25 15.285 283.8 15.055C284.36 14.825 284.845 14.5 285.255 14.08C285.675 13.66 286 13.17 286.23 12.61C286.46 12.04 286.575 11.42 286.575 10.75C286.575 10.08 286.46 9.465 286.23 8.905C286 8.335 285.675 7.84 285.255 7.42C284.845 7 284.36 6.675 283.8 6.445C283.25 6.215 282.65 6.1 282 6.1C281.35 6.1 280.745 6.215 280.185 6.445C279.635 6.675 279.15 7 278.73 7.42C278.32 7.84 278 8.335 277.77 8.905C277.54 9.465 277.425 10.08 277.425 10.75ZM276.6 10.75C276.6 9.97 276.735 9.25 277.005 8.59C277.285 7.93 277.665 7.36 278.145 6.88C278.635 6.39 279.21 6.015 279.87 5.755C280.53 5.485 281.24 5.35 282 5.35C282.77 5.35 283.48 5.485 284.13 5.755C284.79 6.015 285.36 6.39 285.84 6.88C286.33 7.36 286.71 7.93 286.98 8.59C287.26 9.25 287.4 9.97 287.4 10.75C287.4 11.53 287.26 12.25 286.98 12.91C286.71 13.57 286.33 14.145 285.84 14.635C285.36 15.115 284.79 15.49 284.13 15.76C283.48 16.02 282.77 16.15 282 16.15C281.24 16.15 280.53 16.02 279.87 15.76C279.21 15.49 278.635 15.115 278.145 14.635C277.665 14.145 277.285 13.57 277.005 12.91C276.735 12.25 276.6 11.53 276.6 10.75Z" fill="#253763"/>
</g>
<defs>
<clipPath id="clip0_5_20">
<rect width="293.333" height="110.667" fill="white"/>
</clipPath>
</defs>
</svg>
