<svg width="259" height="98" viewBox="0 0 259 98" fill="none" xmlns="http://www.w3.org/2000/svg">
<mask id="mask0_5_109" style="mask-type:luminance" maskUnits="userSpaceOnUse" x="0" y="0" width="259" height="98">
<path d="M258.412 0H0V97.706H258.412V0Z" fill="white"/>
</mask>
<g mask="url(#mask0_5_109)">
<path d="M86.3334 17.6577H50.2144V79.4595H86.3334V17.6577Z" fill="#009DE0"/>
<path d="M55.5001 78.5766H50.2144V80.3423H55.5001V78.5766Z" fill="#009DE0"/>
<path d="M50.0687 49L50.3637 80.3423" stroke="#009DE0"/>
<path d="M92.211 83.5207H95.0212V97.1171H92.211V83.5207ZM101.512 89.4837L100.64 97.1171H97.7522L99.7678 82.8409L105.446 91.6203L111.125 82.8409L113.141 97.1171H110.253L109.381 89.4837L105.446 95.8546L101.512 89.4837ZM115.896 83.5207H118.668V97.1171H115.896V83.5207ZM117.582 85.8709V83.5207H120.276C121.349 83.5207 122.26 83.6955 123.009 84.0451C123.772 84.3948 124.353 84.8933 124.753 85.5407C125.154 86.1882 125.354 86.9586 125.354 87.8521C125.354 88.7324 125.154 89.5031 124.753 90.1635C124.353 90.8107 123.772 91.3095 123.009 91.6591C122.26 92.0087 121.349 92.1835 120.276 92.1835H117.582V89.8333H120.276C121.013 89.8333 121.594 89.6647 122.021 89.3283C122.447 88.9919 122.66 88.4993 122.66 87.8521C122.66 87.1917 122.447 86.6997 122.021 86.3759C121.594 86.0393 121.013 85.8709 120.276 85.8709H117.582ZM130.231 90.3189C130.231 91.1868 130.413 91.9566 130.774 92.6303C131.136 93.3039 131.634 93.8345 132.266 94.223C132.9 94.6115 133.636 94.8057 134.476 94.8057C135.316 94.8057 136.052 94.6115 136.685 94.223C137.318 93.8345 137.809 93.3039 138.158 92.6303C138.52 91.9566 138.701 91.1868 138.701 90.3189C138.701 89.451 138.526 88.6811 138.177 88.0075C137.828 87.3341 137.338 86.8033 136.704 86.4148C136.072 86.0263 135.328 85.8321 134.476 85.8321C133.636 85.8321 132.9 86.0263 132.266 86.4148C131.634 86.8033 131.136 87.3341 130.774 88.0075C130.413 88.6811 130.231 89.451 130.231 90.3189ZM127.305 90.3189C127.305 89.2833 127.486 88.3377 127.847 87.4831C128.209 86.6155 128.713 85.8645 129.359 85.23C130.006 84.5954 130.761 84.1098 131.627 83.7732C132.506 83.4236 133.455 83.2488 134.476 83.2488C135.51 83.2488 136.459 83.4236 137.325 83.7732C138.191 84.1098 138.946 84.5954 139.592 85.23C140.251 85.8645 140.755 86.6155 141.104 87.4831C141.466 88.3377 141.647 89.2833 141.647 90.3189C141.647 91.3422 141.466 92.2939 141.104 93.1741C140.755 94.042 140.258 94.7995 139.612 95.4467C138.979 96.0938 138.223 96.5988 137.344 96.9617C136.479 97.3113 135.522 97.4861 134.476 97.4861C133.429 97.4861 132.467 97.3113 131.588 96.9617C130.723 96.5988 129.967 96.0938 129.32 95.4467C128.675 94.7995 128.177 94.042 127.828 93.1741C127.479 92.2939 127.305 91.3422 127.305 90.3189ZM147.452 90.7851H150.379L154.797 97.1171H151.522L147.452 90.7851ZM144.37 83.5207H147.142V97.1171H144.37V83.5207ZM146.057 85.8904V83.5207H148.925C149.998 83.5207 150.909 83.702 151.658 84.0646C152.407 84.4272 152.983 84.9322 153.383 85.5796C153.783 86.227 153.983 86.9845 153.983 87.8521C153.983 88.7068 153.783 89.4643 153.383 90.1247C152.983 90.7718 152.407 91.2768 151.658 91.6397C150.909 92.0026 149.998 92.1835 148.925 92.1835H146.057V89.9693H148.751C149.242 89.9693 149.661 89.8916 150.01 89.7362C150.372 89.5676 150.65 89.3345 150.844 89.037C151.037 88.7262 151.134 88.3571 151.134 87.9298C151.134 87.5025 151.037 87.1399 150.844 86.8421C150.65 86.5313 150.372 86.2982 150.01 86.1429C149.661 85.9745 149.242 85.8904 148.751 85.8904H146.057ZM155.614 86.0263V83.5207H165.692V86.0263H162.029V97.1171H159.258V86.0263H155.614ZM180.83 92.067V89.8527H187.516C187.555 90.8884 187.432 91.8666 187.148 92.7857C186.876 93.7048 186.444 94.5205 185.849 95.233C185.268 95.9323 184.545 96.4823 183.679 96.884C182.813 97.2857 181.825 97.4861 180.713 97.4861C179.667 97.4861 178.698 97.3113 177.806 96.9617C176.928 96.6121 176.159 96.1203 175.5 95.4855C174.854 94.8507 174.35 94.0932 173.988 93.213C173.639 92.3328 173.465 91.3678 173.465 90.3189C173.465 89.27 173.646 88.3121 174.007 87.4442C174.383 86.5637 174.899 85.8127 175.558 85.1911C176.217 84.5696 176.992 84.0904 177.884 83.7538C178.775 83.4171 179.744 83.2488 180.791 83.2488C181.721 83.2488 182.554 83.3783 183.291 83.6372C184.041 83.8962 184.7 84.2588 185.268 84.7249C185.849 85.1781 186.347 85.722 186.76 86.3565L184.396 87.7356C184.06 87.1399 183.589 86.6609 182.981 86.2983C182.387 85.9228 181.657 85.735 180.791 85.735C179.977 85.735 179.234 85.9228 178.562 86.2983C177.891 86.6609 177.354 87.1853 176.953 87.8715C176.566 88.5575 176.372 89.3733 176.372 90.3189C176.372 91.2512 176.566 92.0732 176.953 92.7857C177.341 93.4849 177.864 94.0288 178.523 94.4172C179.195 94.8057 179.951 94.9999 180.791 94.9999C181.347 94.9999 181.844 94.9284 182.283 94.7863C182.723 94.6309 183.097 94.4172 183.407 94.1453C183.731 93.8734 184.002 93.5626 184.221 93.213C184.441 92.8634 184.609 92.4811 184.725 92.067H180.83ZM193.442 90.7851H196.369L200.788 97.1171H197.512L193.442 90.7851ZM190.361 83.5207H193.132V97.1171H190.361V83.5207ZM192.047 85.8904V83.5207H194.915C195.987 83.5207 196.898 83.702 197.648 84.0646C198.397 84.4272 198.972 84.9322 199.373 85.5796C199.774 86.227 199.974 86.9845 199.974 87.8521C199.974 88.7068 199.774 89.4643 199.373 90.1247C198.972 90.7718 198.397 91.2768 197.648 91.6397C196.898 92.0026 195.987 92.1835 194.915 92.1835H192.047V89.9693H194.741C195.231 89.9693 195.652 89.8916 196 89.7362C196.362 89.5676 196.64 89.3345 196.834 89.037C197.028 88.7262 197.125 88.3571 197.125 87.9298C197.125 87.5025 197.028 87.1399 196.834 86.8421C196.64 86.5313 196.362 86.2982 196 86.1429C195.652 85.9745 195.231 85.8904 194.741 85.8904H192.047ZM205.111 90.3189C205.111 91.1868 205.293 91.9566 205.654 92.6303C206.016 93.3039 206.514 93.8345 207.146 94.223C207.78 94.6115 208.516 94.8057 209.356 94.8057C210.196 94.8057 210.933 94.6115 211.565 94.223C212.198 93.8345 212.689 93.3039 213.038 92.6303C213.4 91.9566 213.581 91.1868 213.581 90.3189C213.581 89.451 213.406 88.6811 213.057 88.0075C212.709 87.3341 212.218 86.8033 211.584 86.4148C210.952 86.0263 210.208 85.8321 209.356 85.8321C208.516 85.8321 207.78 86.0263 207.146 86.4148C206.514 86.8033 206.016 87.3341 205.654 88.0075C205.293 88.6811 205.111 89.451 205.111 90.3189ZM202.185 90.3189C202.185 89.2833 202.366 88.3377 202.727 87.4831C203.089 86.6155 203.593 85.8645 204.239 85.23C204.886 84.5954 205.642 84.1098 206.507 83.7732C207.386 83.4236 208.336 83.2488 209.356 83.2488C210.39 83.2488 211.34 83.4236 212.205 83.7732C213.071 84.1098 213.826 84.5954 214.472 85.23C215.131 85.8645 215.635 86.6155 215.984 87.4831C216.346 88.3377 216.527 89.2833 216.527 90.3189C216.527 91.3422 216.346 92.2939 215.984 93.1741C215.635 94.042 215.138 94.7995 214.492 95.4467C213.859 96.0938 213.103 96.5988 212.224 96.9617C211.359 97.3113 210.402 97.4861 209.356 97.4861C208.309 97.4861 207.347 97.3113 206.468 96.9617C205.603 96.5988 204.847 96.0938 204.2 95.4467C203.555 94.7995 203.057 94.042 202.708 93.1741C202.359 92.2939 202.185 91.3422 202.185 90.3189ZM219.154 83.5207H221.925V92.4749C221.925 93.2518 222.126 93.8796 222.526 94.359C222.94 94.8251 223.547 95.0582 224.348 95.0582C225.149 95.0582 225.75 94.8251 226.15 94.359C226.564 93.8796 226.77 93.2518 226.77 92.4749V83.5207H229.542V92.6497C229.542 93.4523 229.413 94.1586 229.154 94.7669C228.896 95.3752 228.528 95.8872 228.049 96.3013C227.584 96.7154 227.035 97.0262 226.402 97.2336C225.77 97.4535 225.084 97.5638 224.348 97.5638C223.599 97.5638 222.907 97.4535 222.274 97.2336C221.641 97.0262 221.092 96.7154 220.627 96.3013C220.161 95.8872 219.8 95.3752 219.541 94.7669C219.283 94.1586 219.154 93.4523 219.154 92.6497V83.5207ZM232.948 83.5207H235.72V97.1171H232.948V83.5207ZM234.635 85.8709V83.5207H237.329C238.401 83.5207 239.312 83.6955 240.061 84.0451C240.823 84.3948 241.405 84.8933 241.806 85.5407C242.206 86.1882 242.406 86.9586 242.406 87.8521C242.406 88.7324 242.206 89.5031 241.806 90.1635C241.405 90.8107 240.823 91.3095 240.061 91.6591C239.312 92.0087 238.401 92.1835 237.329 92.1835H234.635V89.8333H237.329C238.065 89.8333 238.646 89.6647 239.073 89.3283C239.499 88.9919 239.712 88.4993 239.712 87.8521C239.712 87.1917 239.499 86.6997 239.073 86.3759C238.646 86.0393 238.065 85.8709 237.329 85.8709H234.635Z" fill="#009DE0"/>
<path d="M36.7651 1.76576C28.6604 4.0024 22.7873 7.06305 17.0318 12.2427L12.3334 16.3627L20.3206 16.4805C24.6667 16.4805 30.0699 17.1868 32.1842 18.1285C36.5302 19.8943 36.2953 19.6589 45.2223 45.0859L49.6858 57.9171L52.5048 50.3832C53.9144 46.3807 56.7334 38.1405 58.7302 32.1369C60.727 26.251 63.3699 21.1303 64.3096 20.3063C65.2492 19.4823 70.1239 18.2463 75.2921 17.8931L86.3334 17.6577V48.3519V79.4594H77.9644H71.7977L71.6508 59.4474C71.6508 48.0288 71.181 38.9645 70.7111 39.3177C70.1239 39.6708 66.3651 48.9706 62.254 59.9183C58.2604 70.9838 55.0596 79.9009 55.0596 79.9009C55.0596 79.9009 51.5651 79.9303 48.8929 79.9303C45.3691 79.9303 42.9905 79.9303 42.9905 79.9303C42.9905 79.9303 38.2921 70.042 34.5334 60.036L27.6032 41.7898L27.0159 61.2132L26.4286 79.4594H19.381H11.4525V80.3423L18.4413 86.758C28.073 94.4093 36.0604 96.9997 49.3334 97.1171C59.4349 97.1171 61.1968 96.764 68.4794 93.3498C78.9334 88.4057 88.3304 79.3418 93.0286 69.6889C99.7238 56.1513 98.7838 37.5519 90.9143 24.0144C80.3429 6.0036 56.8508 -3.64926 36.7651 1.76576Z" fill="#253763"/>
<path d="M8.3532 21.6488C-1.71924 37.3787 -1.60856 61.5604 8.68526 76.3512L11.4524 80.3423V49C11.4524 31.7441 11.3417 17.6577 11.2311 17.6577C11.0097 17.6577 9.79211 19.4185 8.3532 21.6488Z" fill="#253763"/>
<path d="M160.921 48.8528V80.0481H167.969H175.016V66.5105V52.973H179.479C183.708 52.973 184.178 53.4438 193.692 66.0396C199.095 73.2204 204.146 79.3418 204.969 79.5771C205.79 79.9303 209.314 80.0481 212.838 79.8126L219.298 79.4595L207.552 64.2739C198.978 53.3261 196.041 48.7351 196.864 47.558C197.45 46.7339 202.854 39.5532 208.727 31.7838L219.65 17.6577H212.133H204.616L193.574 31.7838C183.473 44.8504 182.416 46.0276 179.127 45.6744L175.603 45.3213L175.25 31.4306L174.898 17.6577H167.969H160.921V48.8528Z" fill="#009DE0"/>
<path d="M227.873 48.8528V80.0481H234.921H241.969V48.8528V17.6577H234.921H227.873V48.8528Z" fill="#009DE0"/>
<path d="M92.9114 80.0481L107.829 49.4414C115.933 32.6078 122.864 18.8348 123.216 18.8348C123.569 18.8348 130.969 32.6078 139.426 49.4414L155.048 80.0481L125.095 79.9009L124.214 76.3694C124.214 76.3694 123.581 79.8962 122.893 79.9009C116.859 79.942 119.692 80.0481 107.476 80.0481H92.9114Z" fill="#009DE0"/>
<path d="M248.006 9.66315H249.089L250.794 12.1396H249.446L248.006 9.66315ZM246.579 6.57747H247.715V12.1396H246.579V6.57747ZM247.266 7.54423V6.57747H248.442C249.094 6.57747 249.6 6.74081 249.961 7.06747C250.331 7.38531 250.516 7.79144 250.516 8.28585C250.516 8.81558 250.331 9.24378 249.961 9.57045C249.6 9.89711 249.094 10.0604 248.442 10.0604H247.266V9.15991H248.376C248.675 9.15991 248.913 9.09369 249.089 8.96126C249.265 8.82 249.354 8.61693 249.354 8.35207C249.354 8.07837 249.265 7.87531 249.089 7.74288C248.913 7.61045 248.675 7.54423 248.376 7.54423H247.266ZM244.398 9.49099C244.398 10.0825 244.499 10.6299 244.702 11.1331C244.905 11.6276 245.187 12.0602 245.548 12.431C245.918 12.8018 246.345 13.0887 246.83 13.2918C247.323 13.4949 247.856 13.5964 248.429 13.5964C249.001 13.5964 249.53 13.4949 250.014 13.2918C250.508 13.0887 250.935 12.8018 251.296 12.431C251.666 12.0602 251.952 11.6276 252.155 11.1331C252.358 10.6299 252.459 10.0825 252.459 9.49099C252.459 8.89946 252.358 8.35648 252.155 7.86207C251.952 7.35882 251.666 6.9218 251.296 6.55099C250.935 6.18018 250.508 5.89324 250.014 5.69018C249.53 5.48711 249.001 5.38558 248.429 5.38558C247.856 5.38558 247.323 5.48711 246.83 5.69018C246.345 5.89324 245.918 6.18018 245.548 6.55099C245.187 6.9218 244.905 7.35882 244.702 7.86207C244.499 8.35648 244.398 8.89946 244.398 9.49099ZM243.671 9.49099C243.671 8.80234 243.79 8.16666 244.028 7.58396C244.275 7.00126 244.61 6.49801 245.032 6.07423C245.464 5.64162 245.971 5.31054 246.552 5.08099C247.134 4.84261 247.759 4.72342 248.429 4.72342C249.107 4.72342 249.732 4.84261 250.305 5.08099C250.886 5.31054 251.389 5.64162 251.811 6.07423C252.243 6.49801 252.578 7.00126 252.816 7.58396C253.062 8.16666 253.186 8.80234 253.186 9.49099C253.186 10.1796 253.062 10.8153 252.816 11.398C252.578 11.9807 252.243 12.4884 251.811 12.921C251.389 13.3448 250.886 13.6759 250.305 13.9142C249.732 14.1438 249.107 14.2586 248.429 14.2586C247.759 14.2586 247.134 14.1438 246.552 13.9142C245.971 13.6759 245.464 13.3448 245.032 12.921C244.61 12.4884 244.275 11.9807 244.028 11.398C243.79 10.8153 243.671 10.1796 243.671 9.49099Z" fill="#253763"/>
</g>
</svg>
